<svg xmlns="http://www.w3.org/2000/svg" width="128" height="128" viewBox="0 0 128 128" fill="none">
  <defs>
    <linearGradient id="g" x1="12" y1="8" x2="118" y2="120" gradientUnits="userSpaceOnUse">
      <stop stop-color="#2563EB"/>
      <stop offset="0.55" stop-color="#7C3AED"/>
      <stop offset="1" stop-color="#0D9488"/>
    </linearGradient>
  </defs>
  <rect width="128" height="128" rx="32" fill="url(#g)"/>
  <path d="M34 78V50.5c0-2.2 1.2-4.2 3.1-5.2l24.4-12.6c1.7-.9 3.7-.9 5.4 0l24.4 12.6c1.9 1 3.1 3 3.1 5.2V78c0 2.2-1.2 4.2-3.1 5.2L66.9 95.8c-1.7.9-3.7.9-5.4 0L37.1 83.2C35.2 82.2 34 80.2 34 78z" stroke="#fff" stroke-width="4" fill="none" stroke-linejoin="round"/>
  <circle cx="64" cy="64" r="8" fill="#fff"/>
</svg>
